<?xml version="1.0" encoding="utf-8"?>
<!-- Generator: Adobe Illustrator 22.1.0, SVG Export Plug-In . SVG Version: 6.00 Build 0)  -->
<svg version="1.1" id="Layer_1" xmlns="http://www.w3.org/2000/svg" xmlns:xlink="http://www.w3.org/1999/xlink" x="0px" y="0px"
	 viewBox="0 0 32 32" style="enable-background:new 0 0 32 32;" xml:space="preserve">
<title>git</title>
<path d="M31.4,14.6l-14-14c-0.8-0.8-2.1-0.8-2.9,0l-2.9,2.9l3.7,3.7c0.9-0.3,1.8-0.1,2.5,0.6c0.7,0.7,0.9,1.7,0.6,2.5l3.5,3.5
	c0.9-0.3,1.8-0.1,2.5,0.6c1,1,1,2.5,0,3.5c-1,1-2.5,1-3.5,0c-0.7-0.7-0.9-1.8-0.5-2.7l-3.3-3.3v8.7c0.2,0.1,0.5,0.3,0.7,0.5
	c1,1,1,2.5,0,3.5c-1,1-2.5,1-3.5,0c-1-1-1-2.5,0-3.5c0.2-0.2,0.5-0.4,0.8-0.5v-8.8c-0.3-0.1-0.6-0.3-0.8-0.5
	c-0.7-0.7-0.9-1.8-0.5-2.7l-3.6-3.6l-9.6,9.6c-0.8,0.8-0.8,2.1,0,2.9l14,14c0.8,0.8,2.1,0.8,2.9,0l13.9-13.9
	C32.2,16.7,32.2,15.4,31.4,14.6L31.4,14.6z"/>
</svg>
